<svg xmlns="http://www.w3.org/2000/svg" xmlns:xlink="http://www.w3.org/1999/xlink" version="1.1" width="256" height="256" viewBox="0 0 256 256" xml:space="preserve">

<defs>
</defs>
<g style="stroke: none; stroke-width: 0; stroke-dasharray: none; stroke-linecap: butt; stroke-linejoin: miter; stroke-miterlimit: 10; fill: none; fill-rule: nonzero; opacity: 1;" transform="translate(1.4065934065934016 1.4065934065934016) scale(2.81 2.81)" >
	<path d="M 13.761 43.047 L 13.761 43.047 c -3.975 0 -7.228 -3.252 -7.228 -7.228 v -2.592 c 0 -3.975 3.252 -7.228 7.228 -7.228 h 0 c 3.975 0 7.228 3.252 7.228 7.228 v 2.592 C 20.988 39.795 17.736 43.047 13.761 43.047 z" style="stroke: none; stroke-width: 1; stroke-dasharray: none; stroke-linecap: butt; stroke-linejoin: miter; stroke-miterlimit: 10; fill: rgb(110,177,225); fill-rule: nonzero; opacity: 1;" transform=" matrix(1 0 0 1 0 0) " stroke-linecap="round" />
	<path d="M 17.83 44.04 c -1.223 0.633 -2.605 0.998 -4.07 0.998 s -2.847 -0.364 -4.07 -0.998 C 4.227 44.856 0 49.598 0 55.28 v 7.476 C 0 63.44 0.56 64 1.244 64 h 25.033 c 0.684 0 1.244 -0.56 1.244 -1.244 V 55.28 C 27.521 49.598 23.295 44.856 17.83 44.04 z" style="stroke: none; stroke-width: 1; stroke-dasharray: none; stroke-linecap: butt; stroke-linejoin: miter; stroke-miterlimit: 10; fill: rgb(110,177,225); fill-rule: nonzero; opacity: 1;" transform=" matrix(1 0 0 1 0 0) " stroke-linecap="round" />
	<path d="M 76.239 43.047 L 76.239 43.047 c -3.975 0 -7.228 -3.252 -7.228 -7.228 v -2.592 c 0 -3.975 3.252 -7.228 7.228 -7.228 h 0 c 3.975 0 7.228 3.252 7.228 7.228 v 2.592 C 83.467 39.795 80.214 43.047 76.239 43.047 z" style="stroke: none; stroke-width: 1; stroke-dasharray: none; stroke-linecap: butt; stroke-linejoin: miter; stroke-miterlimit: 10; fill: rgb(113,212,86); fill-rule: nonzero; opacity: 1;" transform=" matrix(1 0 0 1 0 0) " stroke-linecap="round" />
	<path d="M 80.309 44.04 c -1.223 0.633 -2.605 0.998 -4.07 0.998 c -1.465 0 -2.847 -0.364 -4.07 -0.998 c -5.464 0.816 -9.691 5.557 -9.691 11.239 v 7.476 c 0 0.684 0.56 1.244 1.244 1.244 h 25.033 C 89.44 64 90 63.44 90 62.756 V 55.28 C 90 49.598 85.773 44.856 80.309 44.04 z" style="stroke: none; stroke-width: 1; stroke-dasharray: none; stroke-linecap: butt; stroke-linejoin: miter; stroke-miterlimit: 10; fill: rgb(113,212,86); fill-rule: nonzero; opacity: 1;" transform=" matrix(1 0 0 1 0 0) " stroke-linecap="round" />
	<path d="M 23.564 26.808 c 5.164 -6.076 12.855 -9.942 21.436 -9.942 c 8.581 0 16.271 3.866 21.436 9.942 c 1.112 -1.693 2.65 -3.077 4.46 -4.008 C 64.631 15.503 55.35 10.866 45 10.866 S 25.369 15.503 19.104 22.8 C 20.914 23.732 22.452 25.116 23.564 26.808 z" style="stroke: none; stroke-width: 1; stroke-dasharray: none; stroke-linecap: butt; stroke-linejoin: miter; stroke-miterlimit: 10; fill: rgb(100,107,121); fill-rule: nonzero; opacity: 1;" transform=" matrix(1 0 0 1 0 0) " stroke-linecap="round" />
	<path d="M 63.723 68.5 c -0.882 0 -1.715 -0.206 -2.463 -0.563 c -4.595 3.267 -10.205 5.197 -16.26 5.197 c -6.055 0 -11.665 -1.929 -16.26 -5.196 c -0.748 0.357 -1.581 0.563 -2.463 0.563 h -5.998 c 6.223 6.543 15 10.634 24.721 10.634 S 63.498 75.043 69.721 68.5 H 63.723 z" style="stroke: none; stroke-width: 1; stroke-dasharray: none; stroke-linecap: butt; stroke-linejoin: miter; stroke-miterlimit: 10; fill: rgb(100,107,121); fill-rule: nonzero; opacity: 1;" transform=" matrix(1 0 0 1 0 0) " stroke-linecap="round" />
</g>
</svg>